<svg width="722" height="485" viewBox="0 0 722 485" fill="none" xmlns="http://www.w3.org/2000/svg">
  <path d="M166.72 21.9 145.2 43.42h43.05L166.72 21.9Z" fill="#EE885E"/>
  <path d="M429.3 41.29c-1.62 0-2.94-1.32-2.94-2.94 0-1.62 1.32-2.94 2.94-2.94 1.62 0 2.94 1.32 2.94 2.94 0 1.62-1.31 2.94-2.94 2.94Zm2.94 14.65c0-1.62-1.32-2.94-2.94-2.94-1.62 0-2.94 1.32-2.94 2.94 0 1.62 1.32 2.94 2.94 2.94 1.63 0 2.94-1.31 2.94-2.94Zm0 17.59c0-1.62-1.32-2.94-2.94-2.94-1.62 0-2.94 1.32-2.94 2.94 0 1.62 1.32 2.94 2.94 2.94 1.63 0 2.94-1.31 2.94-2.94Zm0 17.59c0-1.62-1.32-2.94-2.94-2.94-1.62 0-2.94 1.32-2.94 2.94 0 1.62 1.32 2.94 2.94 2.94 1.63.01 2.94-1.31 2.94-2.94Zm0 17.6c0-1.62-1.32-2.94-2.94-2.94-1.62 0-2.94 1.32-2.94 2.94 0 1.62 1.32 2.94 2.94 2.94 1.63 0 2.94-1.32 2.94-2.94Zm-17.59-70.37c0-1.62-1.32-2.94-2.94-2.94-1.62 0-2.94 1.32-2.94 2.94 0 1.62 1.32 2.94 2.94 2.94 1.63 0 2.94-1.32 2.94-2.94Zm0 17.59c0-1.62-1.32-2.94-2.94-2.94-1.62 0-2.94 1.32-2.94 2.94 0 1.62 1.32 2.94 2.94 2.94 1.63 0 2.94-1.31 2.94-2.94Zm0 17.59c0-1.62-1.32-2.94-2.94-2.94-1.62 0-2.94 1.32-2.94 2.94 0 1.62 1.32 2.94 2.94 2.94 1.63 0 2.94-1.31 2.94-2.94Zm0 17.59c0-1.62-1.32-2.94-2.94-2.94-1.62 0-2.94 1.32-2.94 2.94 0 1.62 1.32 2.94 2.94 2.94 1.63.01 2.94-1.31 2.94-2.94Zm0 17.6c0-1.62-1.32-2.94-2.94-2.94-1.62 0-2.94 1.32-2.94 2.94 0 1.62 1.32 2.94 2.94 2.94 1.63 0 2.94-1.32 2.94-2.94Zm-17.59-70.37c0-1.62-1.32-2.94-2.94-2.94-1.62 0-2.94 1.32-2.94 2.94 0 1.62 1.32 2.94 2.94 2.94 1.62 0 2.94-1.32 2.94-2.94Zm0 17.59c0-1.62-1.32-2.94-2.94-2.94-1.62 0-2.94 1.32-2.94 2.94 0 1.62 1.32 2.94 2.94 2.94 1.62 0 2.94-1.31 2.94-2.94Zm0 17.59c0-1.62-1.32-2.94-2.94-2.94-1.62 0-2.94 1.32-2.94 2.94 0 1.62 1.32 2.94 2.94 2.94 1.62 0 2.94-1.31 2.94-2.94Zm0 17.59c0-1.62-1.32-2.94-2.94-2.94-1.62 0-2.94 1.32-2.94 2.94 0 1.62 1.32 2.94 2.94 2.94 1.62 0 2.94-1.31 2.94-2.94Zm0 17.6c0-1.62-1.32-2.94-2.94-2.94-1.62 0-2.94 1.32-2.94 2.94 0 1.62 1.32 2.94 2.94 2.94 1.62 0 2.94-1.32 2.94-2.94Zm-17.59-70.37c0-1.62-1.32-2.94-2.94-2.94-1.62 0-2.94 1.32-2.94 2.94 0 1.62 1.32 2.94 2.94 2.94 1.62 0 2.94-1.32 2.94-2.94Zm0 17.59c0-1.62-1.32-2.94-2.94-2.94-1.62 0-2.94 1.32-2.94 2.94 0 1.62 1.32 2.94 2.94 2.94 1.62 0 2.94-1.31 2.94-2.94Zm0 17.59c0-1.62-1.32-2.94-2.94-2.94-1.62 0-2.94 1.32-2.94 2.94 0 1.62 1.32 2.94 2.94 2.94 1.62 0 2.94-1.31 2.94-2.94Zm0 17.59c0-1.62-1.32-2.94-2.94-2.94-1.62 0-2.94 1.32-2.94 2.94 0 1.62 1.32 2.94 2.94 2.94 1.62.01 2.94-1.31 2.94-2.94Zm0 17.6c0-1.62-1.32-2.94-2.94-2.94-1.62 0-2.94 1.32-2.94 2.94 0 1.62 1.32 2.94 2.94 2.94 1.62 0 2.94-1.32 2.94-2.94Zm-17.59-70.37c0-1.62-1.32-2.94-2.94-2.94-1.62 0-2.94 1.32-2.94 2.94 0 1.62 1.32 2.94 2.94 2.94 1.62 0 2.94-1.32 2.94-2.94Zm0 17.59c0-1.62-1.32-2.94-2.94-2.94-1.62 0-2.94 1.32-2.94 2.94 0 1.62 1.32 2.94 2.94 2.94 1.62 0 2.94-1.31 2.94-2.94Zm0 17.59c0-1.62-1.32-2.94-2.94-2.94-1.62 0-2.94 1.32-2.94 2.94 0 1.62 1.32 2.94 2.94 2.94 1.62 0 2.94-1.31 2.94-2.94Zm0 17.59c0-1.62-1.32-2.94-2.94-2.94-1.62 0-2.94 1.32-2.94 2.94 0 1.62 1.32 2.94 2.94 2.94 1.62.01 2.94-1.31 2.94-2.94Zm0 17.6c0-1.62-1.32-2.94-2.94-2.94-1.62 0-2.94 1.32-2.94 2.94 0 1.62 1.32 2.94 2.94 2.94 1.62 0 2.94-1.32 2.94-2.94Z" fill="#FFC263"/>
  <path d="M55.6 37.05a2.94 2.94 0 0 1-4.16 0 2.94 2.94 0 0 1 0-4.16 2.94 2.94 0 0 1 4.16 0 2.94 2.94 0 0 1 0 4.16Zm12.44 8.28a2.94 2.94 0 0 0-4.16 0 2.94 2.94 0 0 0 0 4.16 2.94 2.94 0 0 0 4.16 0 2.94 2.94 0 0 0 0-4.16Zm12.44 12.44a2.94 2.94 0 0 0-4.16 0 2.94 2.94 0 0 0 0 4.16 2.94 2.94 0 0 0 4.16 0 2.94 2.94 0 0 0 0-4.16Zm12.44 12.44a2.94 2.94 0 0 0-4.16 0 2.94 2.94 0 0 0 0 4.16 2.94 2.94 0 0 0 4.16 0 2.94 2.94 0 0 0 0-4.16Zm12.44 12.44a2.94 2.94 0 0 0-4.16 0 2.94 2.94 0 0 0 0 4.16 2.94 2.94 0 0 0 4.16 0 2.958 2.958 0 0 0 0-4.16Zm-62.2-37.32a2.94 2.94 0 0 0-4.16 0 2.94 2.94 0 0 0 0 4.16 2.94 2.94 0 0 0 4.16 0 2.94 2.94 0 0 0 0-4.16ZM55.6 57.77a2.94 2.94 0 0 0-4.16 0 2.94 2.94 0 0 0 0 4.16 2.94 2.94 0 0 0 4.16 0 2.94 2.94 0 0 0 0-4.16Zm12.44 12.44a2.94 2.94 0 0 0-4.16 0 2.94 2.94 0 0 0 0 4.16 2.94 2.94 0 0 0 4.16 0 2.94 2.94 0 0 0 0-4.16Zm12.44 12.44a2.94 2.94 0 0 0-4.16 0 2.94 2.94 0 0 0 0 4.16 2.94 2.94 0 0 0 4.16 0 2.94 2.94 0 0 0 0-4.16Zm12.44 12.44a2.94 2.94 0 0 0-4.16 0 2.94 2.94 0 0 0 0 4.16 2.94 2.94 0 0 0 4.16 0 2.94 2.94 0 0 0 0-4.16Zm-62.2-37.32a2.94 2.94 0 0 0-4.16 0 2.94 2.94 0 0 0 0 4.16 2.94 2.94 0 0 0 4.16 0 2.94 2.94 0 0 0 0-4.16Zm12.44 12.44a2.94 2.94 0 0 0-4.16 0 2.94 2.94 0 0 0 0 4.16 2.94 2.94 0 0 0 4.16 0 2.94 2.94 0 0 0 0-4.16ZM55.6 82.65a2.94 2.94 0 0 0-4.16 0 2.94 2.94 0 0 0 0 4.16 2.94 2.94 0 0 0 4.16 0 2.94 2.94 0 0 0 0-4.16Zm12.44 12.44a2.94 2.94 0 0 0-4.16 0 2.94 2.94 0 0 0 0 4.16 2.94 2.94 0 0 0 4.16 0 2.94 2.94 0 0 0 0-4.16Zm12.44 12.44a2.94 2.94 0 0 0-4.16 0 2.94 2.94 0 0 0 0 4.16 2.94 2.94 0 0 0 4.16 0 2.94 2.94 0 0 0 0-4.16Zm-62.2-37.32a2.94 2.94 0 0 0-4.16 0 2.94 2.94 0 0 0 0 4.16 2.94 2.94 0 0 0 4.16 0 2.94 2.94 0 0 0 0-4.16Zm12.44 12.44a2.94 2.94 0 0 0-4.16 0 2.94 2.94 0 0 0 0 4.16 2.94 2.94 0 0 0 4.16 0 2.94 2.94 0 0 0 0-4.16Zm12.44 12.44a2.94 2.94 0 0 0-4.16 0 2.94 2.94 0 0 0 0 4.16 2.94 2.94 0 0 0 4.16 0 2.94 2.94 0 0 0 0-4.16Zm12.44 12.44a2.94 2.94 0 0 0-4.16 0 2.94 2.94 0 0 0 0 4.16 2.94 2.94 0 0 0 4.16 0 2.94 2.94 0 0 0 0-4.16Zm12.44 12.44a2.94 2.94 0 0 0-4.16 0 2.94 2.94 0 0 0 0 4.16 2.94 2.94 0 0 0 4.16 0 2.94 2.94 0 0 0 0-4.16ZM5.84 82.65a2.94 2.94 0 0 0-4.16 0 2.94 2.94 0 0 0 0 4.16 2.94 2.94 0 0 0 4.16 0 2.94 2.94 0 0 0 0-4.16Zm12.44 12.44a2.94 2.94 0 0 0-4.16 0 2.94 2.94 0 0 0 0 4.16 2.94 2.94 0 0 0 4.16 0 2.94 2.94 0 0 0 0-4.16Zm12.44 12.44a2.94 2.94 0 0 0-4.16 0 2.94 2.94 0 0 0 0 4.16 2.94 2.94 0 0 0 4.16 0 2.94 2.94 0 0 0 0-4.16Zm12.44 12.44a2.94 2.94 0 0 0-4.16 0 2.94 2.94 0 0 0 0 4.16 2.94 2.94 0 0 0 4.16 0 2.94 2.94 0 0 0 0-4.16ZM55.6 132.4a2.94 2.94 0 0 0-4.16 0 2.94 2.94 0 0 0 0 4.16 2.94 2.94 0 0 0 4.16 0 2.94 2.94 0 0 0 0-4.16ZM728.5 6.53c-1.62 0-2.94-1.32-2.94-2.94 0-1.62 1.32-2.94 2.94-2.94 1.62 0 2.94 1.32 2.94 2.94 0 1.63-1.32 2.94-2.94 2.94Zm2.94 14.65c0-1.62-1.32-2.94-2.94-2.94-1.62 0-2.94 1.32-2.94 2.94 0 1.62 1.32 2.94 2.94 2.94 1.62 0 2.94-1.31 2.94-2.94Zm0 17.59c0-1.62-1.32-2.94-2.94-2.94-1.62 0-2.94 1.32-2.94 2.94 0 1.62 1.32 2.94 2.94 2.94 1.62.01 2.94-1.31 2.94-2.94Zm0 17.6c0-1.62-1.32-2.94-2.94-2.94-1.62 0-2.94 1.32-2.94 2.94 0 1.62 1.32 2.94 2.94 2.94 1.62 0 2.94-1.32 2.94-2.94Zm0 17.59c0-1.62-1.32-2.94-2.94-2.94-1.62 0-2.94 1.32-2.94 2.94 0 1.62 1.32 2.94 2.94 2.94 1.62 0 2.94-1.32 2.94-2.94ZM713.85 3.59c0-1.62-1.32-2.94-2.94-2.94-1.62 0-2.94 1.32-2.94 2.94 0 1.62 1.32 2.94 2.94 2.94 1.62 0 2.94-1.31 2.94-2.94Zm0 17.59c0-1.62-1.32-2.94-2.94-2.94-1.62 0-2.94 1.32-2.94 2.94 0 1.62 1.32 2.94 2.94 2.94 1.62 0 2.94-1.31 2.94-2.94Zm0 17.59c0-1.62-1.32-2.94-2.94-2.94-1.62 0-2.94 1.32-2.94 2.94 0 1.62 1.32 2.94 2.94 2.94 1.62.01 2.94-1.31 2.94-2.94Zm0 17.6c0-1.62-1.32-2.94-2.94-2.94-1.62 0-2.94 1.32-2.94 2.94 0 1.62 1.32 2.94 2.94 2.94 1.62 0 2.94-1.32 2.94-2.94Zm0 17.59c0-1.62-1.32-2.94-2.94-2.94-1.62 0-2.94 1.32-2.94 2.94 0 1.62 1.32 2.94 2.94 2.94 1.62 0 2.94-1.32 2.94-2.94Zm-17.6-70.37c0-1.62-1.32-2.94-2.94-2.94-1.62 0-2.94 1.32-2.94 2.94 0 1.62 1.32 2.94 2.94 2.94 1.63 0 2.94-1.31 2.94-2.94Zm0 17.59c0-1.62-1.32-2.94-2.94-2.94-1.62 0-2.94 1.32-2.94 2.94 0 1.62 1.32 2.94 2.94 2.94 1.63 0 2.94-1.31 2.94-2.94Zm0 17.59c0-1.62-1.32-2.94-2.94-2.94-1.62 0-2.94 1.32-2.94 2.94 0 1.62 1.32 2.94 2.94 2.94 1.63.01 2.94-1.31 2.94-2.94Zm0 17.6c0-1.62-1.32-2.94-2.94-2.94-1.62 0-2.94 1.32-2.94 2.94 0 1.62 1.32 2.94 2.94 2.94 1.63 0 2.94-1.32 2.94-2.94Zm0 17.59c0-1.62-1.32-2.94-2.94-2.94-1.62 0-2.94 1.32-2.94 2.94 0 1.62 1.32 2.94 2.94 2.94 1.63 0 2.94-1.32 2.94-2.94ZM678.66 3.59c0-1.62-1.32-2.94-2.94-2.94-1.62 0-2.94 1.32-2.94 2.94 0 1.62 1.32 2.94 2.94 2.94 1.63 0 2.94-1.31 2.94-2.94Zm0 17.59c0-1.62-1.32-2.94-2.94-2.94-1.62 0-2.94 1.32-2.94 2.94 0 1.62 1.32 2.94 2.94 2.94 1.63 0 2.94-1.31 2.94-2.94Zm0 17.59c0-1.62-1.32-2.94-2.94-2.94-1.62 0-2.94 1.32-2.94 2.94 0 1.62 1.32 2.94 2.94 2.94 1.63.01 2.94-1.31 2.94-2.94Zm0 17.6c0-1.62-1.32-2.94-2.94-2.94-1.62 0-2.94 1.32-2.94 2.94 0 1.62 1.32 2.94 2.94 2.94 1.63 0 2.94-1.32 2.94-2.94Zm0 17.59c0-1.62-1.32-2.94-2.94-2.94-1.62 0-2.94 1.32-2.94 2.94 0 1.62 1.32 2.94 2.94 2.94 1.63 0 2.94-1.32 2.94-2.94ZM661.07 3.59c0-1.62-1.32-2.94-2.94-2.94-1.62 0-2.94 1.32-2.94 2.94 0 1.62 1.32 2.94 2.94 2.94 1.62 0 2.94-1.31 2.94-2.94Zm0 17.59c0-1.62-1.32-2.94-2.94-2.94-1.62 0-2.94 1.32-2.94 2.94 0 1.62 1.32 2.94 2.94 2.94 1.62 0 2.94-1.31 2.94-2.94Zm0 17.59c0-1.62-1.32-2.94-2.94-2.94-1.62 0-2.94 1.32-2.94 2.94 0 1.62 1.32 2.94 2.94 2.94 1.62 0 2.94-1.31 2.94-2.94Zm0 17.6c0-1.62-1.32-2.94-2.94-2.94-1.62 0-2.94 1.32-2.94 2.94 0 1.62 1.32 2.94 2.94 2.94 1.62 0 2.94-1.32 2.94-2.94Zm0 17.59c0-1.62-1.32-2.94-2.94-2.94-1.62 0-2.94 1.32-2.94 2.94 0 1.62 1.32 2.94 2.94 2.94 1.62 0 2.94-1.32 2.94-2.94Z" fill="#244579"/>
  <path d="M156.05 451c-2.03 1.35-4.1 1.62-6.13.06-2.01-1.55-2.19-3.67-1.42-6.27-2.63.57-5 .55-6.55-1.79-1.33-2.01-1.01-3.97.3-5.87.16-.16.33-.32.49-.48.94-.68 2.03-1.33 3.13-1.11 2 .4 1.63-.53 1.74-1.93.15-1.95-.06-2.74-2.24-2.43-.79.11-1.7-.59-2.56-.93l-.69-.69c-1.16-1.94-1.51-3.91-.11-5.87 1.55-2.17 3.75-2.36 6.45-1.64-.68-2.66-.58-4.99 1.75-6.54 2-1.32 3.96-.99 5.85.32.16.16.32.33.48.49.39.94 1.21 1.96 1.07 2.82-.39 2.3.71 1.89 2.31 2.02 1.92.16 2.09-.37 2.03-2.01-.03-.93.7-1.88 1.09-2.83.17-.17.34-.35.51-.52 2.01-1.42 4.09-1.66 6.11-.12 2.02 1.53 2.26 3.64 1.47 6.22 2.56-.44 4.96-.55 6.53 1.81 1.33 2.01 1.03 3.97-.24 5.88l-.58.58c-.96.37-1.96 1.14-2.86 1.04-1.95-.22-1.93.47-1.91 2.13.02 1.6-.07 2.37 1.91 2.16.9-.1 1.9.67 2.86 1.05.2.2.4.39.59.59 1.35 2.02 1.61 4.09.07 6.1-1.53 1.99-3.61 2.31-6.21 1.46.53 2.68.44 5.13-2.04 6.67-1.9 1.18-3.79.86-5.6-.3-.24-.25-.49-.49-.73-.74-.96-1.42-1.2-3-.94-4.65-2.72-.31-4.99-.23-4.71 3.38.03.43-.45.91-.69 1.36-.17.21-.35.4-.53.58Zm13.05-8.31c-1.56-.95 1.72-3.93-1.77-3.94-1.78-.01-2.19.6-2.18 2.25.03 3.44 2.96.17 3.95 1.69Zm-18.5.03c.96-1.31 4.44 1.79 3.84-2.46-.48-3.38-2.63-.72-3.82-1.59.49 1.41-.03 2.59-.02 4.05Zm18.62-18.55c-4.13.43-4.03.44-4.14 1.4-.4 3.33 2.11 2.19 4.06 2.71-.59-1.53-.14-2.79.08-4.11Zm-18.66-.18c.23 1.5.37 2.79.15 4.24 1.14-1.02 3.42 1.5 3.8-1.85.48-4.14-3.02-.85-3.95-2.39Zm7.66 9.15c.07.88-.6 2.14 1.21 1.79.91-.18 2.09.47 1.94-1.43-.1-1.29-.17-1.79-1.65-1.7-1.11.08-1.91-.03-1.5 1.34Z" fill="#EE885E"/>
  <path d="M156.54 416.34c-.16-.16-.32-.33-.48-.49-.02-.21 0-.43-.08-.62-1.05-2.31-1.09-4.5 1.06-6.19 1.75-1.38 3.72-1.38 5.48-.02 2.16 1.68 2.13 3.87 1.11 6.19-.08.18-.06.41-.09.61-.17.17-.34.35-.51.52-2.15.89-4.32.87-6.49 0Zm20.9 20.84c-.2-.2-.4-.39-.59-.59-.91-2.12-.9-4.25 0-6.37l.58-.58c.69-.21 1.37-.48 2.07-.62 2.01-.38 3.74.11 4.89 1.89 1.05 1.63 1.05 3.35.01 4.98-1.15 1.79-2.88 2.28-4.88 1.9-.71-.13-1.39-.41-2.08-.61Zm-14.51 13.18c.24.25.49.49.73.74.13.5.27 1 .4 1.5.56 2.12.22 4.01-1.66 5.31-1.73 1.19-3.59 1.17-5.29-.07-1.85-1.35-2.14-3.25-1.52-5.35.15-.5.3-.99.46-1.49.18-.18.36-.36.54-.55 2.1-.89 4.21-.87 6.34-.09Zm-20.18-13.7c-.16.16-.33.32-.49.48-2.53.81-5.09 1.54-6.98-1.19-1.1-1.59-1.13-3.33-.07-4.96 1.8-2.79 4.36-2.17 6.92-1.41l.69.69c.84 2.14.76 4.27-.07 6.39Zm42.21 10.54c.05 2.35-2.06 4.47-4.42 4.42-2.23-.04-4.22-2.03-4.27-4.26-.05-2.36 2.06-4.47 4.41-4.42 2.25.04 4.24 2.02 4.28 4.26Zm-45.93 4.38c-2.33.02-4.41-2.1-4.34-4.42.07-2.21 2.05-4.16 4.26-4.19 2.33-.02 4.41 2.1 4.34 4.42-.07 2.22-2.05 4.17-4.26 4.19Zm11.21 2.49c.09 2.33-1.98 4.47-4.32 4.47-2.21 0-4.22-1.94-4.31-4.17-.09-2.32 1.98-4.47 4.32-4.47 2.22.01 4.23 1.94 4.31 4.17Zm30.14-30.22c-2.36-.15-4.31-2.41-4.07-4.72.23-2.24 2.35-4.07 4.55-3.93 2.35.15 4.31 2.41 4.07 4.72-.23 2.24-2.35 4.07-4.55 3.93Zm-41.54-8.63c2.19-.09 4.27 1.78 4.45 4 .19 2.3-1.8 4.52-4.14 4.61-2.32.09-4.46-1.98-4.45-4.31-.01-2.21 1.92-4.21 4.14-4.3Zm39.17-2.61c-.01 2.35-2.17 4.42-4.5 4.31-2.23-.1-4.16-2.12-4.15-4.35.01-2.35 2.17-4.42 4.5-4.31 2.23.1 4.16 2.12 4.15 4.35Zm-32.06-4.33c2.33.01 4.39 2.16 4.28 4.48-.1 2.22-2.12 4.14-4.32 4.13-2.33-.01-4.39-2.16-4.29-4.48.11-2.21 2.12-4.14 4.33-4.13Zm32.06 45.89c.03 2.35-2.09 4.44-4.43 4.38-2.23-.06-4.19-2.05-4.22-4.28-.03-2.35 2.08-4.44 4.43-4.38 2.23.06 4.19 2.04 4.22 4.28Zm-29.15 6.74c.35-2.44 1.73-3.75 4.19-3.73 2.35.02 4.07 2.02 3.77 4.39-.31 2.47-1.86 3.71-4.29 3.53-2.48-.18-3.6-1.79-3.67-4.19Zm38.69-16.53c-2.44-.22-3.87-1.49-3.99-3.97-.11-2.36 1.8-4.24 4.16-4.06 2.46.18 3.86 1.62 3.82 4.08-.04 2.48-1.55 3.74-3.99 3.95Zm-51.52-4.08c-.19 2.45-1.43 3.95-3.94 3.97-2.48.02-3.94-1.39-3.97-3.88-.03-2.48 1.38-3.93 3.87-3.97 2.51-.04 3.8 1.42 4.04 3.88Zm34.75 20.81c-.18 2.42-1.42 3.95-3.9 4.02-2.46.07-3.92-1.3-4.13-3.77-.2-2.36 1.65-4.3 4.02-4.21 2.47.1 3.77 1.51 4.01 3.96Zm16.71-30.61c-2.45-.26-3.85-1.56-3.93-4.04-.07-2.36 1.88-4.21 4.24-3.99 2.46.23 3.83 1.7 3.74 4.16-.09 2.47-1.63 3.7-4.05 3.87Zm-55.28-8.02c2.44.3 3.86 1.65 3.76 4.13-.1 2.49-1.6 3.85-4.08 3.77-2.49-.09-3.85-1.6-3.77-4.07.09-2.51 1.64-3.7 4.09-3.83Zm24.67-16.93c-.26 2.61-1.56 4.07-4.07 4.03-2.5-.04-3.92-1.5-3.88-3.99.03-2.5 1.5-3.9 3.99-3.89 2.53.02 3.73 1.58 3.96 3.85Zm13.88.14c-.23 2.44-1.51 3.84-3.99 3.93-2.36.08-4.19-1.82-4-4.18.2-2.46 1.65-3.82 4.1-3.75 2.48.07 3.71 1.58 3.89 4Zm-31.66 59.12c-2.18-.25-3.63-1.39-3.68-3.58-.05-2.18 1.33-3.6 3.5-3.65 2.18-.05 3.59 1.33 3.65 3.49.05 2.2-1.38 3.38-3.47 3.74Zm20.77 6.96c-2.15-.25-3.61-1.4-3.66-3.59-.05-2.19 1.34-3.62 3.52-3.67 2.19-.05 3.61 1.34 3.67 3.51.06 2.2-1.37 3.4-3.53 3.75Zm34.89-42.02c1.94.31 3.26 1.48 3.38 3.66.11 1.97-1.94 3.9-3.87 3.63-2.13-.29-3.38-1.61-3.4-3.8-.03-1.86 1.86-3.54 3.89-3.49Zm-66.01 3.62c-.35 2.24-1.54 3.64-3.72 3.59-2.16-.06-3.53-1.47-3.47-3.64.05-2.16 1.47-3.52 3.64-3.48 2.18.05 3.27 1.53 3.55 3.53Zm31-38.31c2.13.25 3.59 1.4 3.62 3.58.04 2.18-1.34 3.59-3.51 3.64-2.18.05-3.59-1.33-3.64-3.5-.04-2.19 1.38-3.38 3.53-3.72Zm-17.13 10.53c-.24 2.12-1.38 3.57-3.55 3.61-2.17.05-3.58-1.32-3.63-3.48-.05-2.17 1.32-3.58 3.48-3.63 2.17-.06 3.36 1.35 3.7 3.5Zm41.67 55.63c-.36 2.16-1.55 3.59-3.75 3.53-2.18-.06-3.57-1.49-3.51-3.68.06-2.18 1.48-3.56 3.67-3.51 2.2.05 3.34 1.52 3.59 3.66Zm-3.73-59.24c2.15.25 3.61 1.4 3.65 3.6.04 2.19-1.34 3.62-3.52 3.67-2.19.05-3.61-1.34-3.67-3.52-.05-2.21 1.38-3.4 3.54-3.75Zm-48.55 48.6c2.24.35 3.65 1.54 3.59 3.72-.05 2.16-1.46 3.53-3.63 3.48-2.16-.05-3.52-1.46-3.49-3.63.05-2.19 1.53-3.29 3.53-3.57Zm55.6-34.32c-2.14-.26-3.61-1.41-3.65-3.6-.04-2.19 1.35-3.61 3.52-3.66 2.19-.05 3.61 1.34 3.66 3.52.07 2.2-1.36 3.39-3.53 3.74Zm-51.92-3.78c-.25 2.18-1.39 3.62-3.56 3.66-2.17.04-3.58-1.32-3.63-3.48-.05-2.17 1.32-3.57 3.48-3.63 2.18-.06 3.35 1.36 3.71 3.45Zm55.56 41.82c-.35 2.13-1.52 3.45-3.7 3.56-1.98.1-3.89-1.95-3.62-3.88.3-2.13 1.63-3.47 3.8-3.36 2.15.1 3.29 1.55 3.52 3.68Zm3.35-38.11c2.13.22 3.29 1.4 3.19 3.52-.11 2.15-1.45 3.23-3.56 3.1-1.98-.12-3.06-1.34-3.03-3.32.03-2.15 1.3-3.19 3.4-3.3Zm-.01 34.46c-2.22-.2-3.44-1.3-3.4-3.42.03-2.11 1.26-3.29 3.36-3.26 2.11.03 3.28 1.26 3.27 3.36-.01 2.14-1.32 3.13-3.23 3.32Zm-69.61-.07c-2.1-.24-3.24-1.4-3.12-3.51.12-2.14 1.46-3.19 3.54-3.05 1.96.13 3.01 1.35 2.98 3.31-.05 2.15-1.31 3.16-3.4 3.25Zm48.7-55.19c2.1.16 3.32 1.26 3.28 3.4-.05 2.14-1.31 3.27-3.43 3.2-1.97-.06-3.09-1.22-3.13-3.19-.03-2.15 1.17-3.25 3.28-3.41Zm-48.35 27.45c-2.22-.13-3.48-1.17-3.47-3.31.01-2.13 1.22-3.29 3.33-3.26 1.96.02 3.1 1.14 3.19 3.1.09 2.14-1.12 3.22-3.05 3.47Zm51.7 45.26c-.25 2.25-1.43 3.41-3.56 3.29-2.15-.12-3.22-1.47-3.08-3.58.13-1.98 1.37-3.04 3.34-3.01 2.19.03 3.15 1.36 3.3 3.3Zm-30.99 3.33c-2.25-.19-3.45-1.31-3.38-3.44.07-2.14 1.35-3.25 3.46-3.17 1.97.08 3.07 1.25 3.1 3.23.02 2.17-1.25 3.18-3.18 3.38Zm3.19-72.59c-.24 2.1-1.4 3.24-3.51 3.12-2.14-.12-3.19-1.46-3.05-3.54.13-1.96 1.35-3.01 3.31-2.98 2.15.05 3.15 1.31 3.25 3.4Zm52.19 44.51c-1.9-.37-3.07-1.41-2.91-3.24.16-1.78 1.38-2.88 3.23-2.7 1.65.17 2.7 1.31 2.64 2.99-.06 1.85-1.32 2.74-2.96 2.95Zm-83.24-.11c-1.77-.18-2.91-1.16-2.87-3 .04-1.67 1.12-2.75 2.8-2.76 1.83-.01 2.95 1.12 2.91 2.95-.02 1.68-1.11 2.61-2.84 2.81Zm48.47-54.4c1.62.11 2.8.94 2.96 2.63.17 1.85-.9 3.08-2.72 3.18-1.83.1-3.01-1.04-3.03-2.88-.02-1.7 1.07-2.66 2.79-2.93Zm37.79 37.52c-.17 1.77-1.11 3-2.94 3.03-1.82.03-2.98-1.13-3-2.95-.02-1.68 1.08-2.8 2.72-2.91 1.84-.12 2.87 1.02 3.22 2.83Zm-86.35-2.8c1.6.1 2.76.92 2.92 2.6.17 1.84-.88 3.05-2.69 3.15-1.82.1-2.98-1.02-3-2.86-.02-1.67 1.04-2.63 2.77-2.89Zm37.75 51.41c-.18 1.75-1.13 2.96-2.94 2.98-1.81.01-2.94-1.15-2.94-2.96 0-1.67 1.09-2.77 2.73-2.86 1.81-.1 2.84 1.02 3.15 2.84Zm-.04-83.25c-.13 1.64-1 2.8-2.68 2.93-1.84.14-3.06-.95-3.13-2.78-.07-1.84 1.09-2.99 2.94-2.98 1.68 0 2.63 1.11 2.87 2.83ZM166.75 478c-1.78-.23-2.96-1.21-2.92-3.03.04-1.81 1.24-2.92 3.05-2.85 1.65.06 2.74 1.16 2.78 2.82.04 1.82-1.11 2.81-2.91 3.06Zm27.72-14.18c-1.71-.14-2.67-1.06-2.59-2.82.07-1.6 1.03-2.48 2.63-2.47 1.77.02 2.69 1.04 2.62 2.78-.07 1.62-1.05 2.4-2.66 2.51Zm-7.16-67.76c1.86.09 2.87.93 2.86 2.7-.01 1.59-.91 2.52-2.5 2.55-1.74.04-2.71-.9-2.71-2.65-.01-1.61.96-2.39 2.35-2.6Zm.29 69.38c1.61.14 2.56.96 2.59 2.57.03 1.76-.93 2.73-2.69 2.72-1.6-.02-2.52-.93-2.56-2.53-.04-1.78.95-2.66 2.66-2.76Zm6.66-62.46c1.86.09 2.88.94 2.86 2.72-.01 1.6-.92 2.54-2.52 2.57-1.75.04-2.73-.91-2.73-2.67 0-1.62.98-2.42 2.39-2.62Zm-59.6-4.21c-.16 1.57-.98 2.52-2.59 2.51-1.77-.01-2.69-1.05-2.58-2.78.1-1.59 1.11-2.43 2.7-2.36 1.6.07 2.37 1.05 2.47 2.63Zm-9.45 59.77c1.58.17 2.51 1.02 2.49 2.64-.03 1.79-1.1 2.69-2.83 2.56-1.61-.12-2.43-1.16-2.34-2.75.09-1.62 1.09-2.38 2.68-2.45Zm57.89-66.86c-.13 1.43-.88 2.43-2.31 2.5-1.59.08-2.6-.89-2.58-2.48.02-1.43.97-2.34 2.41-2.35 1.45-.01 2.23.93 2.48 2.33Zm-41.65.1c-.21 1.4-.97 2.38-2.39 2.39-1.57.01-2.55-.99-2.46-2.56.08-1.39 1.05-2.3 2.48-2.24 1.43.05 2.17 1.01 2.37 2.41Zm-9.41 73.69c1.59.11 2.57.92 2.59 2.54.03 1.77-.97 2.74-2.73 2.67-1.61-.06-2.47-1.05-2.44-2.65.04-1.62.99-2.43 2.58-2.56Zm69.38-8.74c-1.53-.22-2.52-1.05-2.44-2.66.07-1.43 1-2.33 2.45-2.31 1.59.02 2.53 1.01 2.47 2.6-.07 1.45-1.03 2.2-2.48 2.37Zm-83.43-4.98c1.53.17 2.52.92 2.58 2.33.07 1.57-.91 2.57-2.49 2.54-1.41-.03-2.31-.98-2.32-2.41 0-1.46 1.01-2.16 2.23-2.46Zm7.22-43.48c-1.74-.18-2.68-1.01-2.67-2.62.02-1.77 1.06-2.68 2.79-2.57 1.59.1 2.42 1.12 2.35 2.71-.07 1.63-1.11 2.33-2.47 2.48Zm76.07 6.81c-1.48-.31-2.45-1.18-2.27-2.77.15-1.39 1.12-2.28 2.55-2.17 1.56.12 2.47 1.14 2.31 2.71-.15 1.41-1.13 2.14-2.59 2.23Zm-59.82 60.05c-.26 1.4-1.04 2.34-2.5 2.32-1.44-.02-2.39-.93-2.4-2.37-.01-1.6 1-2.56 2.59-2.47 1.44.09 2.19 1.09 2.31 2.52Zm39-2.62c1.67.24 2.67 1.05 2.6 2.64-.06 1.41-.99 2.32-2.41 2.32-1.57-.01-2.52-.98-2.47-2.56.04-1.44 1.06-2.12 2.28-2.4Zm-59.85-59.86c-.27 1.42-1.06 2.37-2.52 2.31-1.43-.06-2.35-1.01-2.3-2.46.06-1.43 1.01-2.35 2.46-2.3 1.45.06 2.2 1.04 2.36 2.45Zm89.95 20.7c-.14 1.41-.87 2.22-2.21 2.21-1.34-.01-2.14-.84-2.13-2.17.01-1.34.84-2.14 2.17-2.13 1.36 0 2.04.85 2.17 2.09Zm-34.98 48.38c-.05 1.27-.6 2-1.68 2.11-1.23.12-2.04-.53-2.08-1.79-.04-1.25.7-1.95 1.95-1.94 1.12.01 1.63.77 1.81 1.62Zm-17.9.28c.2-1.5.99-2.23 2.32-2.12 1.36.11 2.03 1.03 1.89 2.35-.12 1.17-.91 1.86-2.12 1.82-1.38-.03-1.98-.9-2.09-2.05Zm-9.87-.05c-.13 1.18-.76 1.92-2 1.86-1.07-.05-1.73-.74-1.73-1.81 0-1.23.74-1.93 1.96-1.88 1.08.04 1.63.75 1.77 1.83Zm-.02-97.11c-.15 1.07-.72 1.8-1.8 1.8-1.24.01-1.97-.76-1.87-1.99.08-1.05.81-1.71 1.91-1.65 1.08.06 1.64.77 1.76 1.84Zm14.1-.01c-.17 1.5-1.01 2.17-2.35 2.04-1.22-.12-1.86-.94-1.79-2.16.09-1.41.98-2.06 2.32-1.93 1.23.11 1.78.95 1.82 2.05Zm13.7-.08c-.22 1.33-.91 2.04-2.13 1.91-1.04-.11-1.7-.82-1.63-1.91.08-1.22.86-1.89 2.07-1.78 1.07.11 1.55.89 1.69 1.78Zm-62.49 34.76c-.13 1.07-.7 1.8-1.78 1.82-1.24.02-1.98-.74-1.9-1.97.07-1.06.79-1.72 1.89-1.67 1.09.05 1.65.76 1.79 1.82Zm97.2-.19c-.09 1.36-.7 2.08-1.95 2.09-1.08 0-1.77-.61-1.86-1.68-.1-1.21.5-2 1.75-2.09 1.27-.1 1.87.65 2.06 1.68Zm-97.02 14.08c-.09 1.3-.79 2.06-2.16 2.01-1.21-.04-1.91-.77-1.91-1.98-.01-1.37.77-2.11 2.14-2.07 1.21.05 1.84.79 1.93 2.04Zm-.18 13.92c-.16 1.06-.75 1.78-1.83 1.77-1.24-.01-1.96-.79-1.84-2.02.1-1.05.84-1.71 1.94-1.62 1.07.08 1.63.79 1.73 1.87Zm97.19-.09c-.08 1.21-.69 1.93-1.94 1.93-1.08 0-1.77-.61-1.86-1.68-.1-1.21.5-2.01 1.75-2.09 1.24-.08 1.91.6 2.05 1.84Z" fill="#EE885E"/>
</svg>
