<svg width="710" height="500" viewBox="0 0 710 500" fill="none" xmlns="http://www.w3.org/2000/svg">
<g clip-path="url(#clip0_1_3)">
<path d="M710 0H-40V500H710V0Z" fill="white"/>
<path d="M496.78 499.41C496.94 470.32 520.66 446.87 549.75 447.03C578.84 447.19 602.29 470.91 602.13 500" stroke="#1D262D" stroke-width="2" stroke-miterlimit="10"/>
<path d="M588.67 499.92C588.79 478.26 571.33 460.61 549.68 460.49C528.02 460.37 510.37 477.83 510.25 499.48L588.67 499.92Z" fill="#8BD2BD"/>
<path d="M302.42 250L335 268.81L367.58 250V212.38L335 193.57L302.42 212.38V250Z" fill="#FFE031"/>
<path d="M302.42 287.62L335 306.43L367.58 287.62V250L335 231.19L302.42 250V287.62Z" stroke="#1D262D" stroke-width="2" stroke-miterlimit="10"/>
<path d="M192.54 109L151.53 37.96H233.55L192.54 109Z" fill="#8BD2BD"/>
<path d="M-20 43L-6.17 59.34L7.66 43L21.49 59.34L35.32 43L49.16 59.34L63 43" stroke="#1D262D" stroke-width="4" stroke-miterlimit="10"/>
<path d="M-20 21L-6.17 37.34L7.66 21L21.49 37.34L35.32 21L49.16 37.34L63 21" stroke="#1D262D" stroke-width="4" stroke-miterlimit="10"/>
<path d="M418.5 177V164M425 170.5H412H425Z" stroke="#8BD2BD" stroke-miterlimit="10"/>
<path d="M418.5 145V132M425 138.5H412H425Z" stroke="#8BD2BD" stroke-miterlimit="10"/>
<path d="M418.5 114V101M425 107.5H412H425Z" stroke="#8BD2BD" stroke-miterlimit="10"/>
<path d="M418.5 177V164M425 170.5H412H425Z" stroke="#1D262D" stroke-width="2" stroke-miterlimit="10"/>
<path d="M418.5 145V132M425 138.5H412H425Z" stroke="#1D262D" stroke-width="2" stroke-miterlimit="10"/>
<path d="M418.5 114V101M425 107.5H412H425Z" stroke="#1D262D" stroke-width="2" stroke-miterlimit="10"/>
<path d="M448.5 177V164M455 170.5H442H455Z" stroke="#8BD2BD" stroke-miterlimit="10"/>
<path d="M448.5 145V132M455 138.5H442H455Z" stroke="#8BD2BD" stroke-miterlimit="10"/>
<path d="M448.5 114V101M455 107.5H442H455Z" stroke="#8BD2BD" stroke-miterlimit="10"/>
<path d="M448.5 177V164M455 170.5H442H455Z" stroke="#1D262D" stroke-width="2" stroke-miterlimit="10"/>
<path d="M448.5 145V132M455 138.5H442H455Z" stroke="#1D262D" stroke-width="2" stroke-miterlimit="10"/>
<path d="M448.5 114V101M455 107.5H442H455Z" stroke="#1D262D" stroke-width="2" stroke-miterlimit="10"/>
<path d="M478.5 145V132M485 138.5H472H485Z" stroke="#8BD2BD" stroke-miterlimit="10"/>
<path d="M478.5 114V101M485 107.5H472H485Z" stroke="#8BD2BD" stroke-miterlimit="10"/>
<path d="M478.5 145V132M485 138.5H472H485Z" stroke="#1D262D" stroke-width="2" stroke-miterlimit="10"/>
<path d="M478.5 114V101M485 107.5H472H485Z" stroke="#1D262D" stroke-width="2" stroke-miterlimit="10"/>
<path d="M508.5 145V132M515 138.5H502H515Z" stroke="#8BD2BD" stroke-miterlimit="10"/>
<path d="M508.5 114V101M515 107.5H502H515Z" stroke="#8BD2BD" stroke-miterlimit="10"/>
<path d="M508.5 145V132M515 138.5H502H515Z" stroke="#1D262D" stroke-width="2" stroke-miterlimit="10"/>
<path d="M508.5 114V101M515 107.5H502H515Z" stroke="#1D262D" stroke-width="2" stroke-miterlimit="10"/>
<path d="M538.5 145V132M545 138.5H532H545Z" stroke="#8BD2BD" stroke-miterlimit="10"/>
<path d="M538.5 114V101M545 107.5H532H545Z" stroke="#8BD2BD" stroke-miterlimit="10"/>
<path d="M538.5 145V132M545 138.5H532H545Z" stroke="#1D262D" stroke-width="2" stroke-miterlimit="10"/>
<path d="M538.5 114V101M545 107.5H532H545Z" stroke="#1D262D" stroke-width="2" stroke-miterlimit="10"/>
<path d="M36.76 423.23H-20V479.99H36.76V423.23Z" stroke="#1D262D" stroke-width="2" stroke-miterlimit="10"/>
<path d="M65.14 394.85H8.38V451.61H65.14V394.85Z" fill="#FFE031"/>
<path d="M234.62 362.03C232.4 362.03 230.59 360.23 230.59 358C230.59 355.77 232.39 353.97 234.62 353.97C236.84 353.97 238.65 355.77 238.65 358C238.65 360.23 236.85 362.03 234.62 362.03Z" fill="#FFE031"/>
<path d="M234.62 383.63C232.4 383.63 230.59 381.83 230.59 379.6C230.59 377.38 232.39 375.57 234.62 375.57C236.84 375.57 238.65 377.37 238.65 379.6C238.65 381.82 236.85 383.63 234.62 383.63Z" fill="#FFE031"/>
<path d="M234.62 405.23C232.4 405.23 230.59 403.43 230.59 401.2C230.59 398.97 232.39 397.17 234.62 397.17C236.84 397.17 238.65 398.97 238.65 401.2C238.65 403.43 236.85 405.23 234.62 405.23Z" fill="#FFE031"/>
<path d="M234.62 426.82C232.4 426.82 230.59 425.02 230.59 422.79C230.59 420.56 232.39 418.76 234.62 418.76C236.84 418.76 238.65 420.56 238.65 422.79C238.65 425.02 236.85 426.82 234.62 426.82Z" fill="#1D262D"/>
<path d="M234.62 448.42C232.4 448.42 230.59 446.62 230.59 444.39C230.59 442.17 232.39 440.36 234.62 440.36C236.84 440.36 238.65 442.16 238.65 444.39C238.65 446.62 236.85 448.42 234.62 448.42Z" fill="#FFE031"/>
<path d="M234.62 470.02C232.4 470.02 230.59 468.22 230.59 465.99C230.59 463.76 232.39 461.96 234.62 461.96C236.84 461.96 238.65 463.76 238.65 465.99C238.65 468.22 236.85 470.02 234.62 470.02Z" fill="#FFE031"/>
<path d="M234.62 491.62C232.4 491.62 230.59 489.82 230.59 487.59C230.59 485.36 232.39 483.56 234.62 483.56C236.84 483.56 238.65 485.36 238.65 487.59C238.65 489.82 236.85 491.62 234.62 491.62Z" fill="#1D262D"/>
<path d="M217.94 362.03C220.166 362.03 221.97 360.226 221.97 358C221.97 355.774 220.166 353.97 217.94 353.97C215.714 353.97 213.91 355.774 213.91 358C213.91 360.226 215.714 362.03 217.94 362.03Z" fill="#FFE031"/>
<path d="M217.94 383.63C215.72 383.63 213.91 381.83 213.91 379.6C213.91 377.38 215.71 375.57 217.94 375.57C220.16 375.57 221.97 377.37 221.97 379.6C221.97 381.82 220.16 383.63 217.94 383.63Z" stroke="#FFE031" stroke-miterlimit="10"/>
<path d="M217.94 405.23C220.166 405.23 221.97 403.426 221.97 401.2C221.97 398.974 220.166 397.17 217.94 397.17C215.714 397.17 213.91 398.974 213.91 401.2C213.91 403.426 215.714 405.23 217.94 405.23Z" fill="#FFE031"/>
<path d="M217.94 426.83C220.166 426.83 221.97 425.026 221.97 422.8C221.97 420.574 220.166 418.77 217.94 418.77C215.714 418.77 213.91 420.574 213.91 422.8C213.91 425.026 215.714 426.83 217.94 426.83Z" fill="#FFE031"/>
<path d="M217.94 448.42C215.72 448.42 213.91 446.62 213.91 444.39C213.91 442.17 215.71 440.36 217.94 440.36C220.16 440.36 221.97 442.16 221.97 444.39C221.97 446.62 220.16 448.42 217.94 448.42Z" fill="#FFE031"/>
<path d="M217.94 470.03C220.166 470.03 221.97 468.226 221.97 466C221.97 463.774 220.166 461.97 217.94 461.97C215.714 461.97 213.91 463.774 213.91 466C213.91 468.226 215.714 470.03 217.94 470.03Z" stroke="#FFE031" stroke-miterlimit="10"/>
<path d="M217.94 491.63C220.166 491.63 221.97 489.826 221.97 487.6C221.97 485.374 220.166 483.57 217.94 483.57C215.714 483.57 213.91 485.374 213.91 487.6C213.91 489.826 215.714 491.63 217.94 491.63Z" fill="#FFE031"/>
<path d="M201.25 362.03C203.476 362.03 205.28 360.226 205.28 358C205.28 355.774 203.476 353.97 201.25 353.97C199.025 353.97 197.22 355.774 197.22 358C197.22 360.226 199.025 362.03 201.25 362.03Z" fill="#FFE031"/>
<path d="M201.25 383.63C199.03 383.63 197.22 381.83 197.22 379.6C197.22 377.38 199.02 375.57 201.25 375.57C203.48 375.57 205.28 377.37 205.28 379.6C205.28 381.82 203.48 383.63 201.25 383.63Z" fill="#FFE031"/>
<path d="M201.25 405.23C203.476 405.23 205.28 403.426 205.28 401.2C205.28 398.974 203.476 397.17 201.25 397.17C199.025 397.17 197.22 398.974 197.22 401.2C197.22 403.426 199.025 405.23 201.25 405.23Z" fill="#FFE031"/>
<path d="M201.25 426.83C203.476 426.83 205.28 425.026 205.28 422.8C205.28 420.574 203.476 418.77 201.25 418.77C199.025 418.77 197.22 420.574 197.22 422.8C197.22 425.026 199.025 426.83 201.25 426.83Z" fill="#FFE031"/>
<path d="M201.25 448.42C199.03 448.42 197.22 446.62 197.22 444.39C197.22 442.17 199.02 440.36 201.25 440.36C203.48 440.36 205.28 442.16 205.28 444.39C205.28 446.62 203.48 448.42 201.25 448.42Z" fill="#1D262D"/>
<path d="M201.25 470.03C203.476 470.03 205.28 468.226 205.28 466C205.28 463.774 203.476 461.97 201.25 461.97C199.025 461.97 197.22 463.774 197.22 466C197.22 468.226 199.025 470.03 201.25 470.03Z" fill="#FFE031"/>
<path d="M201.25 491.63C203.476 491.63 205.28 489.826 205.28 487.6C205.28 485.374 203.476 483.57 201.25 483.57C199.025 483.57 197.22 485.374 197.22 487.6C197.22 489.826 199.025 491.63 201.25 491.63Z" fill="#FFE031"/>
<path d="M184.56 362.03C186.786 362.03 188.59 360.226 188.59 358C188.59 355.774 186.786 353.97 184.56 353.97C182.334 353.97 180.53 355.774 180.53 358C180.53 360.226 182.334 362.03 184.56 362.03Z" fill="#FFE031"/>
<path d="M184.56 383.63C182.34 383.63 180.53 381.83 180.53 379.6C180.53 377.38 182.33 375.57 184.56 375.57C186.79 375.57 188.59 377.37 188.59 379.6C188.59 381.82 186.79 383.63 184.56 383.63Z" fill="#1D262D"/>
<path d="M184.56 405.23C186.786 405.23 188.59 403.426 188.59 401.2C188.59 398.974 186.786 397.17 184.56 397.17C182.334 397.17 180.53 398.974 180.53 401.2C180.53 403.426 182.334 405.23 184.56 405.23Z" fill="#FFE031"/>
<path d="M184.56 426.83C186.786 426.83 188.59 425.026 188.59 422.8C188.59 420.574 186.786 418.77 184.56 418.77C182.334 418.77 180.53 420.574 180.53 422.8C180.53 425.026 182.334 426.83 184.56 426.83Z" stroke="#FFE031" stroke-miterlimit="10"/>
<path d="M184.56 448.42C182.34 448.42 180.53 446.62 180.53 444.39C180.53 442.17 182.33 440.36 184.56 440.36C186.79 440.36 188.59 442.16 188.59 444.39C188.59 446.62 186.79 448.42 184.56 448.42Z" fill="#FFE031"/>
<path d="M184.56 470.03C186.786 470.03 188.59 468.226 188.59 466C188.59 463.774 186.786 461.97 184.56 461.97C182.334 461.97 180.53 463.774 180.53 466C180.53 468.226 182.334 470.03 184.56 470.03Z" fill="#FFE031"/>
<path d="M184.56 491.63C186.786 491.63 188.59 489.826 188.59 487.6C188.59 485.374 186.786 483.57 184.56 483.57C182.334 483.57 180.53 485.374 180.53 487.6C180.53 489.826 182.334 491.63 184.56 491.63Z" fill="#FFE031"/>
<path d="M167.88 362.03C170.106 362.03 171.91 360.226 171.91 358C171.91 355.774 170.106 353.97 167.88 353.97C165.654 353.97 163.85 355.774 163.85 358C163.85 360.226 165.654 362.03 167.88 362.03Z" stroke="#FFE031" stroke-miterlimit="10"/>
<path d="M167.88 383.63C165.66 383.63 163.85 381.83 163.85 379.6C163.85 377.38 165.65 375.57 167.88 375.57C170.1 375.57 171.91 377.37 171.91 379.6C171.91 381.82 170.1 383.63 167.88 383.63Z" fill="#FFE031"/>
<path d="M167.88 405.23C170.106 405.23 171.91 403.426 171.91 401.2C171.91 398.974 170.106 397.17 167.88 397.17C165.654 397.17 163.85 398.974 163.85 401.2C163.85 403.426 165.654 405.23 167.88 405.23Z" fill="#FFE031"/>
<path d="M167.88 426.83C170.106 426.83 171.91 425.026 171.91 422.8C171.91 420.574 170.106 418.77 167.88 418.77C165.654 418.77 163.85 420.574 163.85 422.8C163.85 425.026 165.654 426.83 167.88 426.83Z" fill="#FFE031"/>
<path d="M167.88 448.42C165.66 448.42 163.85 446.62 163.85 444.39C163.85 442.17 165.65 440.36 167.88 440.36C170.1 440.36 171.91 442.16 171.91 444.39C171.91 446.62 170.1 448.42 167.88 448.42Z" fill="#FFE031"/>
<path d="M167.88 470.03C170.106 470.03 171.91 468.226 171.91 466C171.91 463.774 170.106 461.97 167.88 461.97C165.654 461.97 163.85 463.774 163.85 466C163.85 468.226 165.654 470.03 167.88 470.03Z" fill="#FFE031"/>
<path d="M167.88 491.63C170.106 491.63 171.91 489.826 171.91 487.6C171.91 485.374 170.106 483.57 167.88 483.57C165.654 483.57 163.85 485.374 163.85 487.6C163.85 489.826 165.654 491.63 167.88 491.63Z" fill="#FFE031"/>
<path d="M513.93 172.06C516.156 172.06 517.96 170.256 517.96 168.03C517.96 165.804 516.156 164 513.93 164C511.704 164 509.9 165.804 509.9 168.03C509.9 170.256 511.704 172.06 513.93 172.06Z" fill="#FFE031"/>
<path d="M539.55 168.03C539.55 170.25 537.75 172.06 535.52 172.06C533.3 172.06 531.49 170.26 531.49 168.03C531.49 165.81 533.29 164 535.52 164C537.75 164 539.55 165.8 539.55 168.03Z" fill="#FFE031"/>
<path d="M513.93 188.74C516.156 188.74 517.96 186.936 517.96 184.71C517.96 182.484 516.156 180.68 513.93 180.68C511.704 180.68 509.9 182.484 509.9 184.71C509.9 186.936 511.704 188.74 513.93 188.74Z" fill="#FFE031"/>
<path d="M539.55 184.71C539.55 186.93 537.75 188.74 535.52 188.74C533.3 188.74 531.49 186.94 531.49 184.71C531.49 182.48 533.29 180.68 535.52 180.68C537.75 180.69 539.55 182.49 539.55 184.71Z" stroke="#FFE031" stroke-miterlimit="10"/>
<path d="M513.93 205.43C516.156 205.43 517.96 203.626 517.96 201.4C517.96 199.174 516.156 197.37 513.93 197.37C511.704 197.37 509.9 199.174 509.9 201.4C509.9 203.626 511.704 205.43 513.93 205.43Z" fill="#1D262D"/>
<path d="M539.55 201.4C539.55 203.62 537.75 205.43 535.52 205.43C533.3 205.43 531.49 203.63 531.49 201.4C531.49 199.17 533.29 197.37 535.52 197.37C537.75 197.37 539.55 199.18 539.55 201.4Z" stroke="#FFE031" stroke-miterlimit="10"/>
<path d="M513.93 222.12C516.156 222.12 517.96 220.316 517.96 218.09C517.96 215.864 516.156 214.06 513.93 214.06C511.704 214.06 509.9 215.864 509.9 218.09C509.9 220.316 511.704 222.12 513.93 222.12Z" fill="#1D262D"/>
<path d="M539.55 218.09C539.55 220.31 537.75 222.12 535.52 222.12C533.3 222.12 531.49 220.32 531.49 218.09C531.49 215.87 533.29 214.06 535.52 214.06C537.75 214.06 539.55 215.86 539.55 218.09Z" stroke="#FFE031" stroke-miterlimit="10"/>
<path d="M517.95 234.78C517.95 237 516.15 238.81 513.92 238.81C511.7 238.81 509.89 237.01 509.89 234.78C509.89 232.56 511.69 230.75 513.92 230.75C516.15 230.75 517.95 232.55 517.95 234.78Z" fill="#1D262D"/>
<path d="M539.55 234.78C539.55 237 537.75 238.81 535.52 238.81C533.3 238.81 531.49 237.01 531.49 234.78C531.49 232.56 533.29 230.75 535.52 230.75C537.75 230.75 539.55 232.55 539.55 234.78Z" stroke="#FFE031" stroke-miterlimit="10"/>
<path d="M517.95 251.46C517.95 253.68 516.15 255.49 513.92 255.49C511.7 255.49 509.89 253.69 509.89 251.46C509.89 249.24 511.69 247.43 513.92 247.43C516.15 247.43 517.95 249.24 517.95 251.46Z" fill="#FFE031"/>
<path d="M539.55 251.46C539.55 253.68 537.75 255.49 535.52 255.49C533.3 255.49 531.49 253.69 531.49 251.46C531.49 249.24 533.29 247.43 535.52 247.43C537.75 247.43 539.55 249.24 539.55 251.46Z" stroke="#FFE031" stroke-miterlimit="10"/>
<path d="M517.95 268.15C517.95 270.37 516.15 272.18 513.92 272.18C511.7 272.18 509.89 270.38 509.89 268.15C509.89 265.93 511.69 264.12 513.92 264.12C516.15 264.12 517.95 265.92 517.95 268.15Z" fill="#FFE031"/>
<path d="M539.55 268.15C539.55 270.37 537.75 272.18 535.52 272.18C533.3 272.18 531.49 270.38 531.49 268.15C531.49 265.93 533.29 264.12 535.52 264.12C537.75 264.12 539.55 265.92 539.55 268.15Z" fill="#FFE031"/>
<path d="M324.12 322.73H318.79V344.56H324.12V322.73Z" fill="#1D262D"/>
<path d="M337.66 322.73H332.33V344.56H337.66V322.73Z" fill="#1D262D"/>
<path d="M351.2 322.73H345.87V344.56H351.2V322.73Z" fill="#1D262D"/>
<path d="M324.12 353.82H318.79V375.65H324.12V353.82Z" fill="#1D262D"/>
<path d="M337.66 353.82H332.33V375.65H337.66V353.82Z" fill="#1D262D"/>
<path d="M337.66 384.9H332.33V406.73H337.66V384.9Z" fill="#1D262D"/>
<path d="M351.2 384.9H345.87V406.73H351.2V384.9Z" fill="#1D262D"/>
<path d="M324.12 415.99H318.79V437.82H324.12V415.99Z" fill="#1D262D"/>
<path d="M351.2 415.99H345.87V437.82H351.2V415.99Z" fill="#1D262D"/>
<path d="M324.12 447.08H318.79V468.91H324.12V447.08Z" fill="#1D262D"/>
<path d="M337.66 447.08H332.33V468.91H337.66V447.08Z" fill="#1D262D"/>
<path d="M324.12 478.17H318.79V500H324.12V478.17Z" fill="#1D262D"/>
<path d="M337.66 478.17H332.33V500H337.66V478.17Z" fill="#1D262D"/>
<path d="M351.2 478.17H345.87V500H351.2V478.17Z" fill="#1D262D"/>
<path d="M345.878 177.27H351.208V155.44H345.878V177.27Z" fill="#1D262D"/>
<path d="M332.34 177.27H337.67V155.44H332.34V177.27Z" fill="#1D262D"/>
<path d="M318.802 177.27H324.132V155.44H318.802V177.27Z" fill="#1D262D"/>
<path d="M345.878 146.185H351.208V124.355H345.878V146.185Z" fill="#1D262D"/>
<path d="M332.34 146.185H337.67V124.355H332.34V146.185Z" fill="#1D262D"/>
<path d="M332.34 115.099H337.67V93.2693H332.34V115.099Z" fill="#1D262D"/>
<path d="M318.802 115.099H324.132V93.2693H318.802V115.099Z" fill="#1D262D"/>
<path d="M345.878 84.0037H351.208V62.1737H345.878V84.0037Z" fill="#1D262D"/>
<path d="M318.802 84.0037H324.132V62.1737H318.802V84.0037Z" fill="#1D262D"/>
<path d="M345.878 52.9183H351.208V31.0883H345.878V52.9183Z" fill="#1D262D"/>
<path d="M332.34 52.9183H337.67V31.0883H332.34V52.9183Z" fill="#1D262D"/>
<path d="M345.878 21.8327H351.208V0.00270271H345.878V21.8327Z" fill="#1D262D"/>
<path d="M332.34 21.8327H337.67V0.00270271H332.34V21.8327Z" fill="#1D262D"/>
<path d="M318.802 21.8327H324.132V0.00270271H318.802V21.8327Z" fill="#1D262D"/>
<path d="M710 342.67C658.82 342.67 617.33 301.18 617.33 250C617.33 198.82 658.82 157.33 710 157.33" fill="#FFE031"/>
<path d="M606.68 250C606.68 192.94 652.94 146.68 710 146.68" stroke="#1D262D" stroke-miterlimit="10"/>
<path d="M710 353.32C652.94 353.32 606.68 307.06 606.68 250" stroke="#1D262D" stroke-width="4" stroke-miterlimit="10"/>
<path d="M606.68 250C606.68 192.94 652.94 146.68 710 146.68" stroke="#1D262D" stroke-miterlimit="10"/>
<path d="M710 353.32C652.94 353.32 606.68 307.06 606.68 250" stroke="#1D262D" stroke-width="4" stroke-miterlimit="10"/>
<path d="M597.14 250C597.14 187.67 647.67 137.14 710 137.14" stroke="#1D262D" stroke-miterlimit="10"/>
<path d="M710 362.86C647.67 362.86 597.14 312.33 597.14 250" stroke="#1D262D" stroke-width="4" stroke-miterlimit="10"/>
<path d="M597.14 250C597.14 187.67 647.67 137.14 710 137.14" stroke="#1D262D" stroke-miterlimit="10"/>
<path d="M710 362.86C647.67 362.86 597.14 312.33 597.14 250" stroke="#1D262D" stroke-width="4" stroke-miterlimit="10"/>
<path d="M587.64 250C587.64 182.42 642.42 127.64 710 127.64" stroke="#1D262D" stroke-miterlimit="10"/>
<path d="M710 372.36C642.42 372.36 587.64 317.58 587.64 250" stroke="#1D262D" stroke-width="4" stroke-miterlimit="10"/>
<path d="M577.33 250C577.33 176.73 636.73 117.33 710 117.33" stroke="#1D262D" stroke-miterlimit="10"/>
<path d="M710 382.67C636.73 382.67 577.33 323.27 577.33 250" stroke="#1D262D" stroke-width="4" stroke-miterlimit="10"/>
<path d="M701 9.87H569.5V40.46H701V9.87Z" stroke="#1D262D" stroke-width="2" stroke-miterlimit="10"/>
<path d="M710 0H578.5V30.59H710V0Z" fill="#FFE031"/>
<path d="M531.974 297.3L524.726 290.052L517.478 297.3L524.726 304.547L531.974 297.3Z" fill="#1D262D"/>
<path d="M531.972 322.388L524.724 315.141L517.476 322.388L524.724 329.636L531.972 322.388Z" fill="#8BD2BD"/>
<path d="M531.969 347.477L524.722 340.229L517.474 347.477L524.722 354.725L531.969 347.477Z" fill="#8BD2BD"/>
<path d="M531.974 372.559L524.727 365.311L517.479 372.559L524.727 379.807L531.974 372.559Z" fill="#1D262D"/>
<path d="M-8.02997 132.57C13.94 137.56 30.33 157.21 30.33 180.68C30.33 206.06 11.17 226.96 -13.47 229.71" stroke="#1D262D" stroke-width="3" stroke-miterlimit="10" stroke-linecap="round"/>
<path d="M-5.69995 118.06C23.2701 124.19 45.0001 149.9 45.0001 180.69C45.0001 213.78 19.8901 241.01 -12.3199 244.36" stroke="#1D262D" stroke-width="3" stroke-miterlimit="10" stroke-linecap="round"/>
<path d="M-9.97995 146.98C4.91005 150.96 15.8801 164.54 15.8801 180.69C15.8801 198.41 2.67005 213.05 -14.45 215.28" stroke="#1D262D" stroke-width="3" stroke-miterlimit="10" stroke-linecap="round"/>
<path d="M-11.9899 161.41C-4.11994 164.28 1.50006 171.82 1.50006 180.69C1.50006 190.8 -5.81994 199.2 -15.4399 200.89" stroke="#1D262D" stroke-width="3" stroke-miterlimit="10" stroke-linecap="round"/>
<path d="M92 125.66H115.22V148.88L92 125.66Z" fill="#FFE031"/>
<path d="M92 172.26H115.22V195.49L92 172.26Z" fill="#FFE031"/>
<path d="M92 149.03H115.22V172.26L92 149.03Z" fill="#1D262D"/>
<path d="M168.41 208.7L219.85 157.25" stroke="#1D262D" stroke-width="2" stroke-miterlimit="10"/>
<path d="M181.12 208.7L232.57 157.25" stroke="#1D262D" stroke-width="2" stroke-miterlimit="10"/>
<path d="M193.84 208.7L245.28 157.25" stroke="#8BD2BD" stroke-width="2" stroke-miterlimit="10"/>
<path d="M206.55 208.7L258 157.25" stroke="#FFE031" stroke-width="2" stroke-miterlimit="10"/>
<path d="M419.25 365.36V480.31" stroke="#8BD2BD" stroke-width="2" stroke-miterlimit="10"/>
<path d="M428.5 350.93V480.31" stroke="#FFE031" stroke-width="2" stroke-miterlimit="10"/>
<path d="M437.75 336.51V480.31" stroke="#1D262D" stroke-width="2" stroke-miterlimit="10"/>
<path d="M447 322.09V480.31" stroke="#1D262D" stroke-width="2" stroke-miterlimit="10"/>
<path d="M622.14 406.67C622.14 409.69 619.69 412.14 616.67 412.14C613.65 412.14 611.2 409.69 611.2 406.67C611.2 403.65 613.65 401.2 616.67 401.2C619.69 401.2 622.14 403.65 622.14 406.67Z" fill="#1D262D"/>
<path d="M639.13 423.66C639.13 426.68 636.68 429.13 633.66 429.13C630.64 429.13 628.19 426.68 628.19 423.66C628.19 420.64 630.64 418.19 633.66 418.19C636.68 418.19 639.13 420.64 639.13 423.66Z" fill="#1D262D"/>
<path d="M656.12 440.65C656.12 443.67 653.67 446.12 650.65 446.12C647.63 446.12 645.18 443.67 645.18 440.65C645.18 437.63 647.63 435.18 650.65 435.18C653.68 435.18 656.12 437.63 656.12 440.65Z" fill="#8BD2BD"/>
<path d="M673.12 457.65C673.12 460.67 670.67 463.12 667.65 463.12C664.63 463.12 662.18 460.67 662.18 457.65C662.18 454.63 664.63 452.18 667.65 452.18C670.67 452.18 673.12 454.62 673.12 457.65Z" fill="#FFE031"/>
<path d="M13.85 300H-40V336H13.85V300Z" fill="#8BD2BD"/>
<path d="M485 0H412V12H485V0Z" fill="#8BD2BD"/>
<path d="M485 30H412V42H485V30Z" fill="#8BD2BD"/>
<path d="M628.41 75.45L606.3 97.57" stroke="#1D262D" stroke-width="2" stroke-miterlimit="10"/>
<path d="M628.41 97.57L606.3 75.45" stroke="#1D262D" stroke-width="2" stroke-miterlimit="10"/>
<path d="M437.53 269.47C448.28 269.47 457 260.75 457 250C457 239.25 448.28 230.53 437.53 230.53V269.47Z" fill="#8BD2BD"/>
<path d="M103.61 269.12H91.48V281.25H103.61V269.12Z" stroke="#8BD2BD" stroke-width="2" stroke-miterlimit="10"/>
<path d="M126.05 269.12H113.92V281.25H126.05V269.12Z" stroke="#8BD2BD" stroke-width="2" stroke-miterlimit="10"/>
<path d="M148.48 269.12H136.35V281.25H148.48V269.12Z" stroke="#8BD2BD" stroke-width="2" stroke-miterlimit="10"/>
<path d="M170.92 269.12H158.79V281.25H170.92V269.12Z" stroke="#8BD2BD" stroke-width="2" stroke-miterlimit="10"/>
<path d="M193.35 269.12H181.22V281.25H193.35V269.12Z" stroke="#8BD2BD" stroke-width="2" stroke-miterlimit="10"/>
<path d="M215.78 269.12H203.65V281.25H215.78V269.12Z" stroke="#8BD2BD" stroke-width="2" stroke-miterlimit="10"/>
<path d="M238.22 269.12H226.09V281.25H238.22V269.12Z" stroke="#8BD2BD" stroke-width="2" stroke-miterlimit="10"/>
<path d="M103.61 288.91H91.48V301.04H103.61V288.91Z" stroke="#8BD2BD" stroke-width="2" stroke-miterlimit="10"/>
<path d="M126.05 288.91H113.92V301.04H126.05V288.91Z" stroke="#8BD2BD" stroke-width="2" stroke-miterlimit="10"/>
<path d="M148.48 288.91H136.35V301.04H148.48V288.91Z" stroke="#8BD2BD" stroke-width="2" stroke-miterlimit="10"/>
<path d="M170.92 288.91H158.79V301.04H170.92V288.91Z" stroke="#8BD2BD" stroke-width="2" stroke-miterlimit="10"/>
<path d="M193.35 288.91H181.22V301.04H193.35V288.91Z" stroke="#8BD2BD" stroke-width="2" stroke-miterlimit="10"/>
<path d="M215.78 288.91H203.65V301.04H215.78V288.91Z" stroke="#8BD2BD" stroke-width="2" stroke-miterlimit="10"/>
<path d="M238.22 288.91H226.09V301.04H238.22V288.91Z" stroke="#8BD2BD" stroke-width="2" stroke-miterlimit="10"/>
<path d="M91.48 259.12H103.61" stroke="#8BD2BD" stroke-width="2" stroke-miterlimit="10" stroke-linecap="square"/>
<path d="M113.92 259.12H126.04" stroke="#8BD2BD" stroke-width="2" stroke-miterlimit="10" stroke-linecap="square"/>
</g>
<defs>
<clipPath id="clip0_1_3">
<rect width="710" height="500" fill="white"/>
</clipPath>
</defs>
</svg>
